<?xml version="1.0" encoding="UTF-8"?>
<svg width="3300px" height="2200px" viewBox="0 0 3300 2200" version="1.1" xmlns="http://www.w3.org/2000/svg" xmlns:xlink="http://www.w3.org/1999/xlink">
    <title>max.stopwatch</title>
    <g id="Page-1" stroke="none" stroke-width="1" fill="none" fill-rule="evenodd">
        <g id="max.stopwatch">
            <g id="Notes">
                <rect id="artboard" fill="#FFFFFF" fill-rule="nonzero" x="0" y="0" width="3300" height="2200"></rect>
                <line x1="263" y1="292" x2="3036" y2="292" id="Path" stroke="#000000" stroke-width="0.5"></line>
                <text id="Weight/Scale-Variations" fill="#000000" fill-rule="nonzero" font-family="Helvetica-Bold, Helvetica" font-size="13" font-weight="bold">
                    <tspan x="263" y="322">Weight/Scale Variations</tspan>
                </text>
                <text id="Ultralight" fill="#000000" fill-rule="nonzero" font-family="Helvetica" font-size="13" font-weight="normal">
                    <tspan x="533.711" y="322">Ultralight</tspan>
                </text>
                <text id="Thin" fill="#000000" fill-rule="nonzero" font-family="Helvetica" font-size="13" font-weight="normal">
                    <tspan x="843.422" y="322">Thin</tspan>
                </text>
                <text id="Light" fill="#000000" fill-rule="nonzero" font-family="Helvetica" font-size="13" font-weight="normal">
                    <tspan x="1138.63" y="322">Light</tspan>
                </text>
                <text id="Regular" fill="#000000" fill-rule="nonzero" font-family="Helvetica" font-size="13" font-weight="normal">
                    <tspan x="1426.84" y="322">Regular</tspan>
                </text>
                <text id="Medium" fill="#000000" fill-rule="nonzero" font-family="Helvetica" font-size="13" font-weight="normal">
                    <tspan x="1723.06" y="322">Medium</tspan>
                </text>
                <text id="Semibold" fill="#000000" fill-rule="nonzero" font-family="Helvetica" font-size="13" font-weight="normal">
                    <tspan x="2015.77" y="322">Semibold</tspan>
                </text>
                <text id="Bold" fill="#000000" fill-rule="nonzero" font-family="Helvetica" font-size="13" font-weight="normal">
                    <tspan x="2326.48" y="322">Bold</tspan>
                </text>
                <text id="Heavy" fill="#000000" fill-rule="nonzero" font-family="Helvetica" font-size="13" font-weight="normal">
                    <tspan x="2618.19" y="322">Heavy</tspan>
                </text>
                <text id="Black" fill="#000000" fill-rule="nonzero" font-family="Helvetica" font-size="13" font-weight="normal">
                    <tspan x="2917.4" y="322">Black</tspan>
                </text>
                <line x1="263" y1="1903" x2="3036" y2="1903" id="Path" stroke="#000000" stroke-width="0.5"></line>
                <g id="Group" transform="translate(264.000000, 1918.000000)" fill="#000000" fill-rule="nonzero">
                    <path d="M8.24805,15.830078 C12.5547,15.830078 16.1387,12.25586 16.1387,7.94922 C16.1387,3.6426 12.5449,0.0684 8.23828,0.0684 C3.94141,0.0684 0.36719,3.6426 0.36719,7.94922 C0.36719,12.25586 3.95117,15.830078 8.24805,15.830078 Z M8.24805,14.345703 C4.70312,14.345703 1.87109,11.50391 1.87109,7.94922 C1.87109,4.3945 4.69336,1.5527 8.23828,1.5527 C11.793,1.5527 14.6348,4.3945 14.6445252,7.94922 C14.6543,11.50391 11.8027,14.345703 8.24805,14.345703 Z M5.39648,8.68164 L7.50586,8.68164 L7.50586,10.80078 C7.50586,11.24023 7.79883,11.54297 8.22852,11.54297 C8.67773,11.54297 8.9707,11.24023 8.9707,10.80078 L8.9707,8.68164 L11.0996,8.68164 C11.5391,8.68164 11.8418,8.38867 11.8418,7.95898 C11.8418,7.51953 11.5391,7.2168 11.0996,7.2168 L8.9707,7.2168 L8.9707,5.10742 C8.9707,4.6582 8.67773,4.3555 8.22852,4.3555 C7.79883,4.3555 7.50586,4.6582 7.50586,5.10742 L7.50586,7.2168 L5.39648,7.2168 C4.94727,7.2168 4.64453,7.51953 4.64453,7.95898 C4.64453,8.38867 4.94727,8.68164 5.39648,8.68164 Z" id="Shape"></path>
                </g>
                <g id="Group" transform="translate(282.506000, 1915.000000)" fill="#000000" fill-rule="nonzero">
                    <path d="M10.709,20.91016 C16.1582,20.91016 20.6699,16.38867 20.6699,10.94922 C20.6699,5.5 16.1484,0.9883 10.6992,0.9883 C5.25977,0.9883 0.74805,5.5 0.74805,10.94922 C0.74805,16.38867 5.26953,20.91016 10.709,20.91016 Z M10.709,19.25 C6.09961,19.25 2.41797,15.55859 2.41797,10.94922 C2.41797,6.3398 6.08984,2.6484 10.6992,2.6484 C15.3086,2.6484 19,6.3398 19.009819,10.94922 C19.0195,15.55859 15.3184,19.25 10.709,19.25 Z M6.98828,11.76953 L9.8789,11.76953 L9.8789,14.67969 C9.8789,15.16797 10.2109,15.5 10.6895,15.5 C11.1777,15.5 11.5195,15.16797 11.5195,14.67969 L11.5195,11.76953 L14.4297,11.76953 C14.918,11.76953 15.25,11.4375 15.25,10.95898 C15.25,10.4707 14.918,10.12891 14.4297,10.12891 L11.5195,10.12891 L11.5195,7.2383 C11.5195,6.7305 11.1777,6.3984 10.6895,6.3984 C10.2109,6.3984 9.8789,6.7402 9.8789,7.2383 L9.8789,10.12891 L6.98828,10.12891 C6.48047,10.12891 6.14844,10.4707 6.14844,10.95898 C6.14844,11.4375 6.49023,11.76953 6.98828,11.76953 Z" id="Shape"></path>
                </g>
                <g id="Group" transform="translate(306.924000, 1913.000000)" fill="#000000" fill-rule="nonzero">
                    <path d="M12.9707,25.66406 C19.9336,25.66406 25.6953,19.9023438 25.6953,12.94922 C25.6953,5.9863 19.9238,0.2246 12.9609,0.2246 C6.00781,0.2246 0.25586,5.9863 0.25586,12.94922 C0.25586,19.9023438 6.01758,25.66406 12.9707,25.66406 Z M12.9707,23.84766 C6.93555,23.84766 2.08203,18.98438 2.08203,12.94922 C2.08203,6.9043 6.92578,2.0508 12.9609,2.0508 C19.0059,2.0508 23.8594,6.9043 23.8691148,12.94922 C23.8789,18.98438 19.0156,23.84766 12.9707,23.84766 Z M8.0586,13.85742 L12.0625,13.85742 L12.0625,17.87109 C12.0625,18.4082 12.4336,18.7793 12.9512,18.7793 C13.4883,18.7793 13.8594,18.4082 13.8594,17.87109 L13.8594,13.85742 L17.8828,13.85742 C18.4102,13.85742 18.791,13.48633 18.791,12.96875 C18.791,12.43164 18.4199,12.05078 17.8828,12.05078 L13.8594,12.05078 L13.8594,8.0469 C13.8594,7.4902 13.4883,7.1191 12.9512,7.1191 C12.4336,7.1191 12.0625,7.5 12.0625,8.0469 L12.0625,12.05078 L8.0586,12.05078 C7.50195,12.05078 7.13086,12.43164 7.13086,12.96875 C7.13086,13.48633 7.51172,13.85742 8.0586,13.85742 Z" id="Shape"></path>
                </g>
                <text id="Design-Variations" fill="#000000" fill-rule="nonzero" font-family="Helvetica-Bold, Helvetica" font-size="13" font-weight="bold">
                    <tspan x="263" y="1953">Design Variations</tspan>
                </text>
                <text id="Symbols-are-supported-in-up-to-nine-weights-and-three-scales." fill="#000000" fill-rule="nonzero" font-family="Helvetica" font-size="13" font-weight="normal">
                    <tspan x="263" y="1971">Symbols are supported in up to nine weights and three scales.</tspan>
                </text>
                <text id="For-optimal-layout-with-text-and-other-symbols,-vertically-align" fill="#000000" fill-rule="nonzero" font-family="Helvetica" font-size="13" font-weight="normal">
                    <tspan x="263" y="1989">For optimal layout with text and other symbols, vertically align</tspan>
                </text>
                <text id="symbols-with-the-adjacent-text." fill="#000000" fill-rule="nonzero" font-family="Helvetica" font-size="13" font-weight="normal">
                    <tspan x="263" y="2007">symbols with the adjacent text.</tspan>
                </text>
                <line x1="776" y1="1919" x2="776" y2="1933" id="Path" stroke="#00AEEF" stroke-width="0.5"></line>
                <g id="Group" transform="translate(778.000000, 1918.000000)" fill="#000000" fill-rule="nonzero">
                    <path d="M1.31055,15.126953 C1.82812,15.126953 2.08203,14.9316406 2.26758,14.394531 L3.52734,10.9375 L9.2891,10.9375 L10.5488,14.394531 C10.7344,14.9316406 10.9883,15.126953 11.4961,15.126953 C12.0137,15.126953 12.3457,14.814453 12.3457,14.326172 C12.3457,14.160156 12.3164,14.013672 12.2383,13.79883 L7.6582,1.6113 C7.43359,1.0059 7.0332,0.7129 6.4082,0.7129 C5.80273,0.7129 5.39258,1.0059 5.17773,1.6016 L0.59766,13.80859 C0.51953,14.023438 0.49023,14.169922 0.49023,14.335938 C0.49023,14.824219 0.80273,15.126953 1.31055,15.126953 Z M4.00586,9.46289 L6.37891,2.8906 L6.42773,2.8906 L8.8008,9.46289 L4.00586,9.46289 Z" id="Shape"></path>
                </g>
                <line x1="792.836" y1="1919" x2="792.836" y2="1933" id="Path" stroke="#00AEEF" stroke-width="0.5"></line>
                <text id="Margins" fill="#000000" fill-rule="nonzero" font-family="Helvetica-Bold, Helvetica" font-size="13" font-weight="bold">
                    <tspan x="776" y="1953">Margins</tspan>
                </text>
                <text id="Leading-and-trailing-margins-on-the-left-and-right-side-of-each-symbol" fill="#000000" fill-rule="nonzero" font-family="Helvetica" font-size="13" font-weight="normal">
                    <tspan x="776" y="1971">Leading and trailing margins on the left and right side of each symbol</tspan>
                </text>
                <text id="can-be-adjusted-by-modifying-the-x-location-of-the-margin-guidelines." fill="#000000" fill-rule="nonzero" font-family="Helvetica" font-size="13" font-weight="normal">
                    <tspan x="776" y="1989">can be adjusted by modifying the x-location of the margin guidelines.</tspan>
                </text>
                <text id="Modifications-are-automatically-applied-proportionally-to-all" fill="#000000" fill-rule="nonzero" font-family="Helvetica" font-size="13" font-weight="normal">
                    <tspan x="776" y="2007">Modifications are automatically applied proportionally to all</tspan>
                </text>
                <text id="scales-and-weights." fill="#000000" fill-rule="nonzero" font-family="Helvetica" font-size="13" font-weight="normal">
                    <tspan x="776" y="2025">scales and weights.</tspan>
                </text>
                <g id="Group" transform="translate(1291.000000, 1914.000000)" fill="#000000" fill-rule="nonzero">
                    <path d="M0.8418,20.86523 L2.54102,22.57422 C3.40039,23.44336 4.38672,23.38477 5.31445,22.35938 L15.4902,11.14844 C15.7539,11.23633 16.0273,11.2168 16.3398,11.1582 L17.4043,10.96289 L18.0684,11.63672 L18.0293,12.19336 C17.9902,12.69141 18.1172,13.07227 18.6055,13.55078 L19.3672,14.29297 C19.8457,14.77148 20.4609,14.80078 20.9297,14.33203 L23.8398,11.41211 C24.3086,10.94336 24.2891,10.34766 23.8105,9.86914 L23.0391,9.10742 C22.5605,8.6289 22.1895,8.4727 21.7109,8.5117 L21.1348,8.5605 L20.4902,7.9258 L20.7344,6.8027 C20.8613,6.2363 20.7051,5.7969 20.1191,5.2109 L17.9219,3.0234 C14.582,-0.2969 10.1484,-0.2188 7.25781,2.6719 C6.83789,3.082 6.80859,3.6582 7.04297,4.0488 C7.27734,4.4102 7.73633,4.6445 8.3809,4.4785 C9.8457,4.1367 11.3691,4.0781 12.7949,5.0156 L12.209,6.4707 C12.0137,6.9492 11.9844,7.3496 12.1113,7.7109 L1.04688,18.101562 C0.06055,19.0195312 -0.01758,19.996094 0.8418,20.86523 Z M8.752,3.043 C11.1836,1.2656 14.4746,1.5684 16.7012,3.7949 L19.1328,6.207 C19.3672,6.4414 19.4062,6.627 19.3379,6.9688 L19.0156,8.4531 L20.5195,9.9375 L21.5059,9.87891 C21.7598,9.86914 21.8379,9.88867 22.0332,10.08398 L22.6094,10.66016 L20.168,13.10156 L19.5918,12.52539 C19.3965,12.33008 19.3672,12.25195 19.377,11.98828 L19.4453,11.01172 L17.9512,9.52734 L16.4277,9.78125 C16.1055,9.84961 15.959,9.82031 15.7148,9.58594 L13.7129,7.584 C13.459,7.3496 13.4297,7.1836 13.5859,6.8125 L14.4648,4.7227 C12.9023,3.2676 10.8711,2.6426 8.8398,3.2383 C8.6836,3.2773 8.625,3.1504 8.752,3.043 Z M3.27344,21.3047 L2.10156,20.14258 C1.63281,19.683594 1.74023,19.341797 2.14062,18.9804688 L12.9512,8.8047 L14.416,10.28906 L4.42578,21.27539 C4.07422,21.67578 3.74219,21.77344 3.27344,21.3047 Z" id="Shape"></path>
                </g>
                <text id="Exporting" fill="#000000" fill-rule="nonzero" font-family="Helvetica-Bold, Helvetica" font-size="13" font-weight="bold">
                    <tspan x="1289" y="1953">Exporting</tspan>
                </text>
                <text id="Symbols-should-be-outlined-when-exporting-to-ensure-the" fill="#000000" fill-rule="nonzero" font-family="Helvetica" font-size="13" font-weight="normal">
                    <tspan x="1289" y="1971">Symbols should be outlined when exporting to ensure the</tspan>
                </text>
                <text id="design-is-preserved-when-submitting-to-Xcode." fill="#000000" fill-rule="nonzero" font-family="Helvetica" font-size="13" font-weight="normal">
                    <tspan x="1289" y="1989">design is preserved when submitting to Xcode.</tspan>
                </text>
                <text id="template-version" fill="#000000" fill-rule="nonzero" font-family="Helvetica" font-size="13" font-weight="normal">
                    <tspan x="2952" y="1933">Template v.2.0</tspan>
                </text>
                <text id="Requires-Xcode-12-or-greater" fill="#000000" fill-rule="nonzero" font-family="Helvetica" font-size="13" font-weight="normal">
                    <tspan x="2865" y="1951">Requires Xcode 12 or greater</tspan>
                </text>
                <text id="Generated-from-stopwatch" fill="#000000" fill-rule="nonzero" font-family="Helvetica" font-size="13" font-weight="normal">
                    <tspan x="2882" y="1969">Generated from stopwatch</tspan>
                </text>
                <text id="Typeset-at-100-points" fill="#000000" fill-rule="nonzero" font-family="Helvetica" font-size="13" font-weight="normal">
                    <tspan x="2912" y="1987">Typeset at 100 points</tspan>
                </text>
                <text id="Small" fill="#000000" fill-rule="nonzero" font-family="Helvetica" font-size="13" font-weight="normal">
                    <tspan x="263" y="726">Small</tspan>
                </text>
                <text id="Medium" fill="#000000" fill-rule="nonzero" font-family="Helvetica" font-size="13" font-weight="normal">
                    <tspan x="263" y="1156">Medium</tspan>
                </text>
                <text id="Large" fill="#000000" fill-rule="nonzero" font-family="Helvetica" font-size="13" font-weight="normal">
                    <tspan x="263" y="1586">Large</tspan>
                </text>
            </g>
            <g id="Guides" transform="translate(263.000000, 625.000000)">
                <g id="H-reference" transform="translate(76.000000, 0.000000)" fill="#27AAE1" fill-rule="nonzero">
                    <path d="M0.976562,71 L3.66211,71 L12.9883,46.5371 L45.752,46.5371 L55.127,71 L57.7637,71 L30.6152,0.541 L28.125,0.541 L0.976562,71 Z M29.3457,3.8613 L29.4434,3.8613 L44.873,44.291 L13.8672,44.291 L29.3457,3.8613 Z" id="Shape"></path>
                </g>
                <line x1="0" y1="71" x2="2773" y2="71" id="Baseline-S" stroke="#27AAE1" stroke-width="0.5"></line>
                <line x1="0" y1="0.541" x2="2773" y2="0.541" id="Capline-S" stroke="#27AAE1" stroke-width="0.5"></line>
                <g id="H-reference" transform="translate(76.000000, 430.000000)" fill="#27AAE1" fill-rule="nonzero">
                    <path d="M0.976562,71 L3.66211,71 L12.9883,46.5371 L45.752,46.5371 L55.127,71 L57.7637,71 L30.6152,0.541 L28.125,0.541 L0.976562,71 Z M29.3457,3.8613 L29.4434,3.8613 L44.873,44.291 L13.8672,44.291 L29.3457,3.8613 Z" id="Shape"></path>
                </g>
                <line x1="0" y1="501" x2="2773" y2="501" id="Baseline-M" stroke="#27AAE1" stroke-width="0.5"></line>
                <line x1="0" y1="430.54" x2="2773" y2="430.54" id="Capline-M" stroke="#27AAE1" stroke-width="0.5"></line>
                <g id="H-reference" transform="translate(76.000000, 860.000000)" fill="#27AAE1" fill-rule="nonzero">
                    <path d="M0.976562,71 L3.66211,71 L12.9883,46.5371 L45.752,46.5371 L55.127,71 L57.7637,71 L30.6152,0.541 L28.125,0.541 L0.976562,71 Z M29.3457,3.8613 L29.4434,3.8613 L44.873,44.291 L13.8672,44.291 L29.3457,3.8613 Z" id="Shape"></path>
                </g>
                <line x1="0" y1="931" x2="2773" y2="931" id="Baseline-L" stroke="#27AAE1" stroke-width="0.5"></line>
                <line x1="0" y1="860.54" x2="2773" y2="860.54" id="Capline-L" stroke="#27AAE1" stroke-width="0.5"></line>
                <line x1="1128.3" y1="405.79" x2="1128.3" y2="525.12" id="left-margin" stroke="#00AEEF" stroke-width="0.5"></line>
                <line x1="1245.39" y1="405.79" x2="1245.39" y2="525.12" id="right-margin" stroke="#00AEEF" stroke-width="0.5"></line>
            </g>
            <g id="Symbols" transform="translate(498.000000, 608.000000)" fill="#000000" fill-rule="nonzero">
                <g id="Black-L" transform="translate(2367.050000, 829.000000)">
                    <path d="M68.3457,151.8613 C105.748,151.8613 136.412,121.19727 136.412,83.7949 C136.412,70.1719 132.359,57.4766 125.377,46.7832 L130.602,41.6562 C132.75,39.5566 133.775,37.3594 133.775,34.8203 C133.775,29.8398 129.918,25.8848 124.889,25.8848 C121.91,25.8848 119.859,26.7637 117.76,28.7168 L113.365,32.916 C103.551,24.1758 91.197,18.219 77.623,16.363 L77.623,9.576 C77.623,4.352 73.4727,0.396 68.3945,0.396 C63.4141,0.396 59.1172,4.352 59.1172,9.576 L59.1172,16.363 C26.0117,20.9043 0.2793,49.5176 0.2793,83.7949 C0.2793,121.19727 30.9434,151.8613 68.3457,151.8613 Z M68.3457,131.4023 C41.9785,131.4023 20.7383,110.16211 20.7383,83.7949 C20.7383,57.4277 41.9297,36.1875 68.2969,36.1875 C94.664,36.1875 115.953084,57.4277 115.953084,83.7949 C116.002,110.16211 94.713,131.4023 68.3457,131.4023 Z M78.2419218,93.326515 C83.4554908,88.112946 83.420984,79.653969 78.207415,74.4404 C74.892852,71.125837 70.2317455,69.9173915 65.9850036,70.8496411 L50.6551407,55.5197782 C47.7894491,52.6540865 43.3008766,52.6540865 40.4006782,55.554285 C37.5349158,58.4200473 37.5349865,62.9085491 40.4006782,65.7742407 L55.7305411,81.1041036 C54.832869,85.385423 56.006737,90.011952 59.3213,93.326515 C64.534869,98.540084 73.0284235,98.5400133 78.2419218,93.326515 Z" id="Shape"></path>
                </g>
                <g id="Heavy-L" transform="translate(2071.390000, 830.000000)">
                    <path d="M67.2715,149.7871 C104.088,149.7871 134.312,119.5625 134.312,82.7949 C134.312,68.8789 129.967,55.9395 122.643,45.1973 L127.965,39.9238 C129.918,38.0195 130.846,35.9199 130.846,33.6738 C130.846,29.084 127.281,25.5195 122.691,25.5195 C120.006,25.5195 118.102,26.3008 116.197,28.1074 L111.51,32.5996 C101.695,23.9082 89.342,18.0488 75.7188,16.291 L75.7188,9.406 C75.7188,4.621 71.959,0.959 67.3203,0.959 C62.7305,0.959 58.8242,4.621 58.8242,9.406 L58.8242,16.291 C25.9629,20.4902 0.2793,48.8105 0.2793,82.7949 C0.2793,119.5625 30.5039,149.7871 67.2715,149.7871 Z M67.2715,132.0137 C40.0254,132.0137 18.0527,110.04102 18.0527,82.7949 C18.0527,55.5 39.9766,33.5273 67.2715,33.5273 C94.518,33.5273 116.49,55.5 116.539,82.7949 C116.539,110.04102 94.566,132.0137 67.2715,132.0137 Z M76.2611915,91.3314708 C81.0949028,86.4977596 81.0949028,78.6256812 76.2611208,73.7918992 C73.1192332,70.6500117 68.6998159,69.5450866 64.5911012,70.5463498 L47.3623031,53.3175517 C44.8073141,50.7625627 40.8367681,50.7970696 38.2817792,53.3520585 C35.7267903,55.9070474 35.6922834,59.8775934 38.2472724,62.4325823 L55.4760705,79.6613805 C54.5093141,83.7355883 55.5796617,88.1895832 58.7215492,91.3314708 C63.5553312,96.1652528 71.4274096,96.1652528 76.2611915,91.3314708 Z" id="Shape"></path>
                </g>
                <g id="Bold-L" transform="translate(1775.880000, 832.000000)">
                    <path d="M66.0996,146.5664 C102.232,146.5664 131.92,116.878906 131.92,80.7461 C131.92,66.5371 127.33,53.3047 119.518,42.5137 L124.986,37.0938 C126.695,35.3848 127.574,33.4316 127.574,31.4297 C127.574,27.377 124.352,24.2031 120.25,24.2031 C117.857,24.2031 116.148,24.8867 114.439,26.498 L109.41,31.3809 C99.596,22.7383 87.2422,16.9766 73.668,15.365 L73.668,8.334 C73.668,4.037 70.2988,0.717 66.0996,0.717 C61.998,0.717 58.5312,4.037 58.5312,8.334 L58.5312,15.365 C25.9141,19.1738 0.2793,47.2012 0.2793,80.7461 C0.2793,116.878906 30.0156,146.5664 66.0996,146.5664 Z M66.0996,131.8203 C37.8281,131.8203 15.0742,109.01758 15.0742,80.7461 C15.0742,52.4746 37.7793,29.7207 66.0508,29.7207 C94.371,29.7207 117.125,52.4746 117.174,80.7461 C117.174,109.01758 94.371,131.8203 66.0996,131.8203 Z M74.2101507,89.2560507 C78.6295681,84.8366333 78.6295681,77.6551154 74.1755732,73.2011205 C71.2062904,70.2318377 67.0285621,69.2995882 63.1271004,70.3699357 L43.7576072,51.0004425 C41.5824053,48.8252406 38.1642512,48.8597474 35.9545425,51.0694561 C33.7793406,53.244658 33.7793406,56.6283053 35.9545425,58.8035072 L55.2894582,78.1384229 C54.2536882,82.0744621 55.2204445,86.2866972 58.1552205,89.2214732 C62.5746379,93.6408906 69.7562265,93.7099749 74.2101507,89.2560507 Z" id="Shape"></path>
                </g>
                <g id="Semibold-L" transform="translate(1479.970000, 833.000000)">
                    <path d="M65.2695,144.7363 C100.914,144.7363 130.309,115.390625 130.309,79.7461 C130.309,65.293 125.475,51.9141 117.369,41.0742 L122.936,35.5078 C124.498,33.9453 125.279,32.1387 125.279,30.2832 C125.279,26.6211 122.35,23.6426 118.59,23.6426 C116.393,23.6426 114.83,24.2773 113.219,25.791 L107.994,30.918 C98.18,22.3242 85.7773,16.6113 72.2031,15.0977 L72.2031,7.969 C72.2031,4.014 69.127,0.889 65.2695,0.889 C61.4609,0.889 58.2871,4.014 58.2871,7.969 L58.2871,15.0977 C25.8652,18.6133 0.2793,46.4453 0.2793,79.7461 C0.2793,115.390625 29.6738,144.7363 65.2695,144.7363 Z M65.2695,132.041 C36.3145,132.041 13.0234,108.75 13.0234,79.7461 C13.0234,50.791 36.2656,27.4512 65.2695,27.4512 C94.225,27.4512 117.564,50.791 117.613077,79.7461 C117.662,108.75 94.273,132.041 65.2695,132.041 Z M72.4663531,87.4879031 C76.6440814,83.3101748 76.574997,76.6119644 72.4317756,72.4687429 C69.6005907,69.6375581 65.6300447,68.7743221 61.7975967,69.9138247 L40.9779689,49.0941969 C39.0444561,47.1606841 36.0061597,47.1606841 34.0726469,49.0941969 C32.1392048,51.027639 32.1391341,54.0660061 34.0726469,55.9995189 L54.8576972,76.7845692 C53.7873497,80.6170172 54.6505149,84.6566475 57.4471929,87.4533256 C61.5904144,91.596547 68.2886248,91.6656314 72.4663531,87.4879031 Z" id="Shape"></path>
                </g>
                <g id="Medium-L" transform="translate(1183.870000, 834.000000)">
                    <path d="M64.6836,143.1504 C99.938,143.1504 129.088,114 129.088,78.7461 C129.088,64.1465 124.059,50.6211 115.709,39.7324 L121.373,34.0684 C122.789,32.6523 123.57,30.8945 123.57,29.1855 C123.57,25.7676 120.836,22.9844 117.271,22.9844 C115.27,22.9844 113.805,23.6191 112.291,24.9863 L106.871,30.3574 C97.105,21.7637 84.7031,16.0508 71.1289,14.6836 L71.1289,7.457 C71.1289,3.746 68.248,0.816 64.6348,0.816 C61.0703,0.816 58.1406,3.746 58.1406,7.457 L58.1406,14.6836 C25.8652,18.0039 0.2793,45.6406 0.2793,78.7461 C0.2793,114 29.3809,143.1504 64.6836,143.1504 Z M64.6836,132.0176 C35.1426,132.0176 11.4609,108.23828 11.4609,78.7461 C11.4609,49.2539 35.1426,25.4746 64.6348,25.4746 C94.127,25.4746 117.906076,49.2539 117.906076,78.7461 C117.955,108.23828 94.176,132.0176 64.6836,132.0176 Z M71.9078133,85.8703565 C75.8438525,81.9343173 75.8093457,75.615894 71.8733065,71.6798548 C69.1457128,68.9522611 65.2786872,68.1236733 61.5843371,69.3321188 L39.6253482,47.3731299 C37.8990177,45.6467994 35.171424,45.6813062 33.4105867,47.4421435 C31.6842562,49.168474 31.6496787,51.8961384 33.3760092,53.6224689 L55.3004206,75.5468803 C54.1611302,79.2412304 54.9897179,83.1772696 57.6828048,85.8703565 C61.618844,89.8063957 67.9372673,89.8409025 71.9078133,85.8703565 Z" id="Shape"></path>
                </g>
                <g id="Regular-L" transform="translate(887.970000, 835.000000)">
                    <path d="M63.8535,141.3203 C98.668,141.3203 127.477,112.511719 127.477,77.7461 C127.477,62.9023 122.252,49.1816 113.561,38.3418 L119.322,32.4824 C120.592,31.2129 121.324,29.5527 121.324,28.0391 C121.324,24.9629 118.834,22.4727 115.611,22.4727 C113.805,22.4727 112.438,23.0098 111.119,24.2793 L105.455,29.8945 C95.641,21.3496 83.2871,15.6855 69.7129,14.416 L69.7129,7.043 C69.7129,3.723 67.125,0.988 63.8047,0.988 C60.582,0.988 57.9453,3.723 57.9453,7.043 L57.9453,14.416 C25.8164,17.4434 0.2793,44.9336 0.2793,77.7461 C0.2793,112.511719 29.0879,141.3203 63.8535,141.3203 Z M63.8535,132.2383 C33.6777,132.2383 9.4102,107.92188 9.4102,77.7461 C9.4102,47.5215 33.6289,23.2539 63.8047,23.2539 C94.029,23.2539 118.297,47.5215 118.346074,77.7461 C118.395,107.92188 94.078,132.2383 63.8535,132.2383 Z M70.164051,84.1509942 C73.8238943,80.491151 73.7548807,74.621599 70.0950374,70.9617557 C67.5055417,68.37226 63.8456984,67.6126859 60.2204326,68.8902157 L36.8113091,45.4810921 C35.3266677,43.9964507 33.0132972,44.0309576 31.494149,45.5501058 C30.0440144,47.0002403 29.9750007,49.3481177 31.4596421,50.8327591 L54.8341882,74.2073051 C53.6603202,77.7980641 54.35081,81.5269917 56.9403057,84.1164874 C60.600149,87.7763307 66.469701,87.8453443 70.164051,84.1509942 Z" id="Shape"></path>
                </g>
                <g id="Light-L" transform="translate(592.180000, 836.000000)">
                    <path d="M62.9258,139.3926 C97.301,139.3926 125.621,111.072266 125.621,76.7461 C125.621,61.7559 120.201,47.8887 111.266,37.0488 L118.248,30.0176 C119.273,28.9922 119.859,27.6738 119.859,26.4531 C119.859,24.0117 117.857,21.9609 115.27,21.9609 C113.805,21.9609 112.73,22.4004 111.656,23.4746 L104.771,30.2617 C94.762,21.2285 81.8223,15.3203 67.6133,14.2461 L67.6133,5.213 C67.6133,2.527 65.5625,0.379 62.9258,0.379 C60.2891,0.379 58.1895,2.527 58.1895,5.213 L58.1895,14.2461 C26.0117,16.6875 0.2793,43.9336 0.2793,76.7461 C0.2793,111.072266 28.5996,139.3926 62.9258,139.3926 Z M62.9258,132.5078 C32.1152,132.5078 7.2129,107.55664 7.2129,76.7461 C7.2129,45.8867 32.0664,20.9844 62.9258,20.9844 C93.736,20.9844 118.688,45.8867 118.736,76.7461 C118.736,107.55664 93.785,132.5078 62.9258,132.5078 Z M69.0881109,82.1096109 C72.3335896,78.8641322 72.2990828,73.7886612 69.0190266,70.5086049 C66.7403043,68.2298826 63.5292617,67.5738997 60.0766007,68.816852 L34.9411466,43.6813979 C33.7672787,42.50753 31.9719346,42.5765436 30.7634891,43.7849891 C29.6241279,44.9243502 29.5550436,46.7197651 30.7289116,47.893633 L55.7952813,72.9600027 C54.6214133,76.4127344 55.2083826,79.7618043 57.4871049,82.0405266 C60.7326544,85.286076 65.8425615,85.3551603 69.0881109,82.1096109 Z" id="Shape"></path>
                </g>
                <g id="Thin-L" transform="translate(296.693000, 836.000000)">
                    <path d="M61.7051,138.1719 C95.494,138.1719 123.18,110.48633 123.18,76.7461 C123.18,61.5117 117.516,47.498 108.238,36.707 L116.783,28.1133 C117.516,27.3809 117.906,26.5508 117.906,25.623 C117.906,24.0605 116.49,22.6445 114.781,22.6445 C113.805,22.6445 113.072,22.9375 112.34,23.6699 L103.844,32.1172 C93.541,22.4004 79.8691,16.1504 64.8789,15.3691 L64.8789,4.09 C64.8789,2.234 63.5605,0.867 61.7051,0.867 C59.8984,0.867 58.5801,2.234 58.5801,4.09 L58.5801,15.3691 C26.2559,17.0293 0.2793,44.0312 0.2793,76.7461 C0.2793,110.48633 27.9648,138.1719 61.7051,138.1719 Z M61.7051,134.168 C30.0156,134.168 4.2832,108.43555 4.2832,76.7461 C4.2832,45.0078 30.0156,19.2754 61.7051,19.2754 C93.395,19.2754 119.176,45.0078 119.176,76.7461 C119.176,108.43555 93.443,134.168 61.7051,134.168 Z M66.7019528,81.7823596 C69.3604621,79.1238502 69.3604621,74.9806287 66.5982909,72.2184575 C64.7338625,70.3540291 62.0753531,69.8360733 58.8643105,71.1136032 L31.4156273,43.66492 C30.69056,42.9398527 29.5166213,43.0088663 28.7225404,43.8029472 C28.0319799,44.4935077 27.9974731,45.6329396 28.7225404,46.3580069 L56.0676325,73.7030989 C54.8247509,76.9486483 55.2736222,79.7452556 57.1725575,81.6441909 C59.9001512,84.3717846 64.0433727,84.4409396 66.7019528,81.7823596 Z" id="Shape"></path>
                </g>
                <g id="Ultralight-L" transform="translate(0.616000, 837.000000)">
                    <path d="M61.1191,136.5371 C94.566,136.5371 121.91,109.19336 121.91,75.7461 C121.91,60.3652 116.148,46.3027 106.676,35.5605 L116.051,26.1367 C116.637,25.5508 116.881,24.9648 116.881,24.2324 C116.881,23.0605 115.855,22.0352 114.537,22.0352 C113.854,22.0352 113.268,22.2305 112.73,22.7676 L103.355,32.0938 C92.906,21.9863 78.8926,15.541 63.4629,14.9551 L63.4629,2.504 C63.4629,1.137 62.4863,0.111 61.1191,0.111 C59.7031,0.111 58.7754,1.137 58.7754,2.504 L58.7754,14.9551 C26.3535,16.2246 0.2793,43.0312 0.2793,75.7461 C0.2793,109.19336 27.623,136.5371 61.1191,136.5371 Z M61.1191,134.0469 C28.9414,134.0469 2.7695,107.875 2.7695,75.7461 C2.7695,44.3984 27.7207,18.7148 58.7754,17.4453 L58.7754,17.543 L63.4629,17.543 L63.4629,17.4453 C78.2578,18.0312 91.637,24.1836 101.598,33.8027 L101.402,34.0469 L104.82,37.416 L104.918,37.3184 C113.951,47.5723 119.42,61.0488 119.42,75.7461 C119.42,107.875 93.248,134.0469 61.1191,134.0469 Z M64.9980331,80.0582763 C67.3459104,77.7103989 67.3113329,74.0851331 64.8254283,71.5992285 C63.1681821,69.9419824 60.8203048,69.5276178 57.7129947,70.7705701 L29.0903729,42.1479483 C28.5724879,41.6300633 27.7783363,41.7336544 27.2258737,42.2861169 C26.7424955,42.7694951 26.6734819,43.5290692 27.1913669,44.0469542 L55.6758908,72.5314781 C54.398361,75.6733657 54.778148,78.1938478 56.5044785,79.9201783 C58.9558763,82.3715761 62.6157196,82.4405897 64.9980331,80.0582763 Z" id="Shape"></path>
                </g>
                <g id="Black-M" transform="translate(2380.970000, 416.000000)">
                    <path d="M54.4023,120.457 C83.9922,120.457 108.113,96.38477 108.113,66.7949 C108.113,56.541 105.184,46.9707 100.203,38.8164 L104.744,34.373 C106.6,32.6152 107.381,30.9062 107.381,28.7578 C107.381,24.6562 104.207,21.3848 100.057,21.3848 C97.615,21.3848 95.906,22.0684 94.197,23.6797 L90.5352,27.1465 C82.7715,20.0664 72.9082,15.2324 62.0684,13.6699 L62.0684,7.7129 C62.0684,3.416 58.6992,0.291 54.5,0.291 C50.3984,0.291 46.834,3.416 46.834,7.7129 L46.834,13.6699 C20.8086,17.332 0.74023,39.793 0.74023,66.7949 C0.74023,96.38477 24.8125,120.457 54.4023,120.457 Z M54.4023,102.195312 C34.8711,102.195312 19.002,86.375 19.002,66.7949 C19.002,47.2637 34.8711,31.3945 54.4023,31.3945 C73.9824,31.3945 89.8027,47.2637 89.8027,66.7949 C89.8027,86.375 73.9824,102.195312 54.4023,102.195312 Z M61.8344701,74.8521408 C66.1503671,70.5362439 66.1502964,63.5618376 61.8344701,59.2460113 C59.1759607,56.587502 55.5506243,55.5862388 52.0634565,56.1731374 L41.8435715,45.9532524 C39.3575962,43.4672771 35.4561345,43.5018546 32.9701592,45.9878299 C30.4842546,48.4737345 30.4841839,52.3406893 32.9701592,54.8266647 L43.1900442,65.0465497 C42.6031456,68.5337175 43.569902,72.1935607 46.2284113,74.8520701 C50.5442376,79.1678964 57.5532214,79.1333895 61.8344701,74.8521408 Z" id="Shape"></path>
                </g>
                <g id="Heavy-M" transform="translate(2085.190000, 417.000000)">
                    <path d="M53.5234,118.5293 C82.5273,118.5293 106.258,94.79883 106.258,65.7949 C106.258,55.248 103.133,45.4336 97.762,37.1816 L102.107,32.9336 C103.768,31.3223 104.549,29.6621 104.549,27.709 C104.549,23.9004 101.619,20.9219 97.762,20.9219 C95.516,20.9219 93.953,21.5566 92.342,23.0703 L88.6797,26.5371 C80.9648,19.6523 71.248,14.9648 60.5547,13.5 L60.5547,7.8359 C60.5547,3.832 57.4297,0.854 53.5234,0.854 C49.7637,0.854 46.4434,3.832 46.4434,7.8359 L46.4434,13.5 C20.7109,16.9668 0.74023,39.1348 0.74023,65.7949 C0.74023,94.79883 24.4707,118.5293 53.5234,118.5293 Z M53.5234,102.61133 C33.1133,102.61133 16.6582,86.1562 16.6582,65.7949 C16.6582,45.3848 33.1133,28.9297 53.4746,28.9297 C73.8848,28.9297 90.3398,45.3848 90.3398,65.7949 C90.3398,86.1562 73.8848,102.61133 53.5234,102.61133 Z M61.1037956,73.0380888 C65.1089191,69.0329653 65.0743416,62.5074303 61.0692181,58.5023068 C58.5488067,55.9818954 54.9925545,55.0495751 51.6779915,55.7402063 L39.8352964,43.8975112 C37.5910809,41.6532957 34.1384199,41.6532957 31.8942044,43.8975112 C29.6844957,46.1072199 29.6844957,49.5598809 31.9287112,51.8040964 L43.7714063,63.6467915 C43.0808458,66.9612838 44.0130954,70.5176067 46.5335068,73.0380181 C50.5386303,77.0431416 57.0641653,77.0777191 61.1037956,73.0380888 Z" id="Shape"></path>
                </g>
                <g id="Bold-M" transform="translate(1789.500000, 419.000000)">
                    <path d="M52.498,115.5039 C80.8672,115.5039 104.207,92.16406 104.207,63.7949 C104.207,52.9551 100.838,42.8477 95.076,34.5469 L99.178,30.4453 C100.643,28.9805 101.375,27.418 101.375,25.6602 C101.375,22.2422 98.689,19.5078 95.223,19.5078 C93.172,19.5078 91.707,20.0938 90.2422,21.4609 L86.5801,24.9766 C78.9629,18.2871 69.3926,13.7461 58.8945,12.4277 L58.8945,7.1055 C58.8945,3.4434 56.0625,0.6602 52.498,0.6602 C49.0312,0.6602 46.0527,3.4434 46.0527,7.1055 L46.0527,12.4277 C20.6133,15.6016 0.74023,37.5254 0.74023,63.7949 C0.74023,92.16406 24.0801,115.5039 52.498,115.5039 Z M52.498,102.22266 C31.1602,102.22266 14.0703,85.084 14.0703,63.7949 C14.0703,42.457 31.1602,25.3184 52.4492,25.3184 C73.7383,25.3184 90.9259037,42.457 90.9259037,63.7949 C90.9746,85.084 73.7871,102.22266 52.498,102.22266 Z M59.2510504,70.1365143 C62.9108936,66.476671 62.9108936,60.4689503 59.2165435,56.7746003 C56.7997233,54.35778 53.4160052,53.5291216 50.2396108,54.35778 L36.5324873,40.6506565 C34.633552,38.7517212 31.6296917,38.7171437 29.6961789,40.6506565 C27.7972437,42.5495917 27.7972437,45.5880296 29.6961789,47.4869648 L43.3687957,61.1595815 C42.6091508,64.3359759 43.43788,67.7196233 45.8547003,70.1364435 C49.5490503,73.8307936 55.5221935,73.8653712 59.2510504,70.1365143 Z" id="Shape"></path>
                </g>
                <g id="Semibold-M" transform="translate(1493.500000, 420.000000)">
                    <path d="M51.7656,113.8203 C79.7441,113.8203 102.791,90.72461 102.791,62.7461 C102.791,51.7598 99.227,41.457 93.172,33.1074 L97.176,29.1035 C98.494,27.7852 99.227,26.2227 99.227,24.6602 C99.227,21.4375 96.688,18.8984 93.416,18.8984 C91.5117,18.8984 90.1934,19.4355 88.8262,20.7539 L85.1641,24.3184 C77.5957,17.7266 68.123,13.332 57.7715,12.0625 L57.7715,6.9355 C57.7715,3.5664 55.0859,0.8809 51.7656,0.8809 C48.543,0.8809 45.7598,3.5664 45.7598,6.9355 L45.7598,12.0625 C20.5645,15.0898 0.74023,36.8184 0.74023,62.7461 C0.74023,90.72461 23.7871,113.8203 51.7656,113.8203 Z M51.7656,102.3457 C29.8418,102.3457 12.2637,84.6699 12.2637,62.7461 C12.2637,40.8223 29.793,23.1953 51.7656,23.1953 C73.6895,23.1953 91.3164,40.8223 91.3652,62.7461 C91.3652,84.6699 73.6895,102.3457 51.7656,102.3457 Z M57.6293381,69.5248381 C61.1165766,66.0375996 61.0819991,60.4098074 57.6293381,56.9571464 C55.2815314,54.6093398 52.0015459,53.8842725 48.928672,54.7474377 L33.9785962,39.7973619 C32.2867725,38.1055382 29.5936856,38.1055382 27.9018619,39.7973619 C26.1755314,41.5236924 26.1755314,44.2167793 27.8673551,45.908603 L42.8174309,60.8586788 C41.9887725,63.8970459 42.7483466,67.2115383 45.0616464,69.5248381 C48.5143074,72.9774991 54.1421703,73.0120059 57.6293381,69.5248381 Z" id="Shape"></path>
                </g>
                <g id="Medium-M" transform="translate(1197.300000, 421.000000)">
                    <path d="M51.2285,112.2344 C78.9141,112.2344 101.766,89.38281 101.766,61.7461 C101.766,50.5645 98.006,40.1641 91.707,31.7656 L95.613,27.8594 C96.883,26.5898 97.566,25.0762 97.566,23.6113 C97.566,20.584 95.174,18.1914 92.098,18.1914 C90.291,18.1914 89.0215,18.7285 87.752,19.9492 L84.0898,23.5625 C76.5703,17.0684 67.1465,12.7715 56.8926,11.5508 L56.8926,6.6191 C56.8926,3.3965 54.3535,0.8086 51.2285,0.8086 C48.1523,0.8086 45.5645,3.3965 45.5645,6.6191 L45.5645,11.5508 C20.5156,14.4316 0.74023,36.0137 0.74023,61.7461 C0.74023,89.38281 23.5918,112.2344 51.2285,112.2344 Z M51.2285,102.17578 C28.8164,102.17578 10.8965,84.1582 10.8965,61.7461 C10.8965,39.334 28.8164,21.3652 51.1797,21.3652 C73.5918,21.3652 91.6094,39.334 91.6582986,61.7461 C91.707,84.1582 73.6406,102.17578 51.2285,102.17578 Z M57.1785758,68.0496758 C60.4931389,64.7351128 60.4586321,59.3834458 57.1785758,56.1033896 C54.8998535,53.8246673 51.6888109,53.1686843 48.6850213,54.0317789 L32.8027666,38.1495242 C31.2490409,36.5957984 28.8321499,36.5957984 27.2439174,38.184031 C25.7246984,39.7032499 25.7247691,42.1200702 27.2784949,43.6737959 L43.1607496,59.5560506 C42.2975843,62.5599109 42.9880741,65.8054603 45.2322896,68.0496758 C48.5123458,71.3297321 53.8640128,71.3642389 57.1785758,68.0496758 Z" id="Shape"></path>
                </g>
                <g id="Regular-M" transform="translate(901.300000, 423.000000)">
                    <path d="M50.5449,109.5508 C77.791,109.5508 100.35,86.94336 100.35,59.7461 C100.35,48.3691 96.395,37.8223 89.8027,29.375 L93.611,25.5176 C94.734,24.3945 95.369,22.8809 95.369,21.5625 C95.369,18.8281 93.172,16.6309 90.3398,16.6309 C88.6797,16.6309 87.5078,17.1191 86.3359,18.2422 L82.625,21.8555 C75.2031,15.5078 65.877,11.3086 55.7207,10.2344 L55.7207,5.4492 C55.7207,2.5195 53.4258,0.0781 50.4961,0.0781 C47.6641,0.0781 45.2715,2.5195 45.2715,5.4492 L45.2715,10.2344 C20.418,12.8711 0.74023,34.3066 0.74023,59.7461 C0.74023,86.94336 23.3477,109.5508 50.5449,109.5508 Z M50.5449,101.25 C27.498,101.25 9.0898,82.793 9.0898,59.7461 C9.0898,36.6992 27.4492,18.2422 50.4961,18.2422 C73.543,18.2422 92,36.6992 92.0490971,59.7461 C92.098,82.793 73.5918,101.25 50.5449,101.25 Z M56.5985316,65.4207816 C59.6714056,62.3479077 59.6714056,57.3760985 56.5985316,54.3032245 C54.4234005,52.1280934 51.2814422,51.4720397 48.4157505,52.4732322 L31.2560367,35.3135184 C29.9094933,33.9669749 27.803305,34.0014817 26.4567616,35.3480252 C25.1102181,36.6945686 25.1102888,38.7661794 26.4568323,40.1127228 L43.5820393,57.2379298 C42.6842965,60.138199 43.3058434,63.2456505 45.4809745,65.4207816 C48.5538485,68.4936556 53.4911509,68.5281624 56.5985316,65.4207816 Z" id="Shape"></path>
                </g>
                <g id="Light-M" transform="translate(605.420000, 423.000000)">
                    <path d="M49.7148,108.7207 C76.5215,108.7207 98.689,86.55273 98.689,59.7461 C98.689,48.2227 94.588,37.5293 87.8008,29.1309 L92.635,24.1992 C93.562,23.2715 94.051,22.0996 94.051,21.0254 C94.051,18.8281 92.293,17.0703 89.998,17.0703 C88.7285,17.0703 87.752,17.4609 86.8242,18.3887 L82.0391,23.125 C74.373,16.3379 64.5586,11.8457 53.8652,10.918 L53.8652,4.7168 C53.8652,2.3242 52.0098,0.3711 49.666,0.3711 C47.3711,0.3711 45.5156,2.3242 45.5156,4.7168 L45.5156,10.918 C20.6133,13.1152 0.74023,34.3066 0.74023,59.7461 C0.74023,86.55273 22.9082,108.7207 49.7148,108.7207 Z M49.7148,102.37305 C26.082,102.37305 7.0879,83.3301 7.0879,59.7461 C7.0879,36.1133 26.082,17.0703 49.666,17.0703 C73.2988,17.0703 92.342,36.1133 92.391,59.7461 C92.391,83.3301 73.3477,102.37305 49.7148,102.37305 Z M54.6303483,64.501519 C57.3234352,61.8084321 57.3234352,57.527042 54.5958415,54.7994483 C52.6969062,52.900513 49.9693125,52.382628 47.2416481,53.3148069 L28.5627154,34.6358742 C27.4923679,33.5655266 25.8696285,33.6001042 24.7647742,34.7049585 C23.7290042,35.7407285 23.6944266,37.3634679 24.7647742,38.4338154 L43.4092001,57.0782413 C42.4769505,59.805835 43.029413,62.5680062 44.9283483,64.4669415 C47.6214352,67.1600284 51.9027546,67.2291127 54.6303483,64.501519 Z" id="Shape"></path>
                </g>
                <g id="Thin-M" transform="translate(309.806000, 423.000000)">
                    <path d="M48.6406,107.5977 C74.9102,107.5977 96.492,86.01562 96.492,59.7461 C96.492,47.9785 92.195,37.1875 85.0664,28.7891 L91.3652,22.4902 C92,21.8555 92.293,21.0742 92.293,20.293 C92.293,18.877 91.1211,17.7051 89.5586,17.7051 C88.7285,17.7051 88.0938,17.9492 87.459,18.584 L81.209,24.7852 C73.25,17.3633 62.8496,12.627 51.375,11.9434 L51.375,3.6914 C51.375,2.0801 50.2031,0.8105 48.5918,0.8105 C47.0293,0.8105 45.8086,2.0801 45.8086,3.6914 L45.8086,11.9434 C20.8086,13.4082 0.74023,34.3555 0.74023,59.7461 C0.74023,86.01562 22.3223,107.5977 48.6406,107.5977 Z M48.6406,103.88672 C24.2266,103.88672 4.4512,84.1113 4.4512,59.7461 C4.4512,35.3809 24.2266,15.5566 48.5918,15.5566 C73.0059,15.5566 92.781,35.3809 92.781,59.7461 C92.781,84.1113 73.0059,103.88672 48.6406,103.88672 Z M52.3936357,63.2790789 C54.5688376,61.103877 54.5343308,57.6857228 52.2900446,55.4414366 C50.7708964,53.9222884 48.561117,53.5079946 46.0061987,54.4747509 L25.2556553,33.7242075 C24.5650948,33.033647 23.5638316,33.0681538 22.8387643,33.7932211 C22.2172881,34.4146972 22.1827813,35.4159605 22.8733418,36.1065209 L43.5548009,56.7879801 C42.5880446,59.3430397 42.9678316,61.6563395 44.5214866,63.2099946 C46.7311953,65.4197033 50.183927,65.4887876 52.3936357,63.2790789 Z" id="Shape"></path>
                </g>
                <g id="Ultralight-M" transform="translate(13.656000, 424.000000)">
                    <path d="M48.0547,106.0605 C74.0801,106.0605 95.369,84.77148 95.369,58.7461 C95.369,46.8809 90.9746,35.9922 83.6504,27.6426 L90.6816,20.6113 C91.1699,20.123 91.4141,19.5371 91.4141,18.9512 C91.4141,17.9258 90.4863,16.998 89.3633,16.998 C88.7285,16.998 88.2402,17.1934 87.752,17.6816 L80.7695,24.6152 C72.7129,16.9004 61.9707,11.9688 50.1055,11.4805 L50.1055,2.1543 C50.1055,0.9336 49.2754,0.0547 48.0547,0.0547 C46.834,0.0547 46.0039,0.9336 46.0039,2.1543 L46.0039,11.4805 C20.9062,12.5547 0.74023,33.4043 0.74023,58.7461 C0.74023,84.77148 22.0293,106.0605 48.0547,106.0605 Z M48.0547,103.66797 C23.2988,103.66797 3.1328,83.502 3.1328,58.7461 C3.1328,33.9414 23.2988,13.8242 48.0547,13.8242 C72.8594,13.8242 92.977,33.9414 92.977,58.7461 C92.977,83.502 72.8594,103.66797 48.0547,103.66797 Z M51.7356912,61.665748 C53.6692039,59.7322352 53.6692039,56.7629524 51.6666068,54.7603553 C50.3200634,53.4138118 48.3865506,53.0686023 45.9351528,54.0698655 L24.1142618,32.2489745 C23.6308836,31.7655963 22.905887,31.8001738 22.388002,32.3180588 C21.9737082,32.7323527 21.9390599,33.45742 22.4224381,33.9407982 L44.139738,55.658098 C43.1729816,58.1440026 43.483755,60.1811066 44.8648053,61.5621568 C46.8328249,63.5301764 49.8366852,63.5647539 51.7356912,61.665748 Z" id="Shape"></path>
                </g>
                <g id="Black-S" transform="translate(2392.570000, 0.000000)">
                    <path d="M42.8281,94.78711 C65.9727,94.78711 84.8203,75.9395 84.8203,52.7949 C84.8203,44.7383 82.5254,37.2188 78.5703,30.8223 L82.1348,27.3555 C83.5508,25.9883 84.1855,24.6699 84.1855,23.0098 C84.1855,19.7871 81.6953,17.248 78.4727,17.248 C76.5684,17.248 75.25,17.7852 73.8828,19.0547 L71.0508,21.7402 C64.9473,16.2227 57.2812,12.4141 48.7852,11.2422 L48.7852,6.6035 C48.7852,3.2344 46.1484,0.793 42.877,0.793 C39.7031,0.793 36.9199,3.2344 36.9199,6.6035 L36.9199,11.1934 C16.5586,14.123 0.83594,31.6523 0.83594,52.7949 C0.83594,75.9395 19.6836,94.78711 42.8281,94.78711 Z M42.8281,80.62695 C27.4473,80.62695 14.9961,68.1758 14.9961,52.7949 C14.9961,37.4141 27.4473,24.9629 42.8281,24.9629 C58.209,24.9629 70.6602,37.4141 70.6602,52.7949 C70.6602,68.1758 58.209,80.62695 42.8281,80.62695 Z M49.1528894,58.6978601 C52.5020299,55.3487195 52.5019592,49.8934614 49.1528894,46.5443916 C47.0812786,44.4727808 44.2155163,43.6786999 41.5224294,44.1620781 L33.4086619,36.0483106 C31.4752198,34.1148686 28.4368527,34.1147979 26.5033399,36.0483106 C24.5698979,37.9817527 24.5698979,41.0201905 26.5033399,42.9536326 L34.6171074,51.0674001 C34.1337292,53.760487 34.9278808,56.6261786 36.9994916,58.6977894 C40.3485614,62.0468592 45.8038195,62.0469299 49.1528894,58.6978601 Z" id="Shape"></path>
                </g>
                <g id="Heavy-S" transform="translate(2096.470000, 1.000000)">
                    <path d="M42.2422,93.15234 C64.9961,93.15234 83.5996,74.5488 83.5996,51.7949 C83.5996,43.543 81.1582,35.8281 76.959,29.3828 L80.2305,26.1602 C81.5488,24.8906 82.1836,23.5723 82.1836,22.0586 C82.1836,18.9824 79.791,16.5898 76.7637,16.5898 C74.957,16.5898 73.6875,17.127 72.418,18.2988 L69.6836,20.8867 C63.6777,15.5645 56.1582,11.9512 47.8574,10.7793 L47.8574,6.5312 C47.8574,3.3574 45.3672,0.9648 42.2422,0.9648 C39.2148,0.9648 36.627,3.3574 36.627,6.5312 L36.627,10.7793 C16.4609,13.5137 0.83594,30.9453 0.83594,51.7949 C0.83594,74.5488 19.4395,93.15234 42.2422,93.15234 Z M42.2422,80.60352 C26.2754,80.60352 13.4336,67.7129 13.4336,51.7949 C13.4336,35.8281 26.2754,22.9863 42.1934,22.9863 C58.1602,22.9863 71.002,35.8281 71.0508,51.7949 C71.0508,67.7129 58.1602,80.60352 42.2422,80.60352 Z M47.6979261,57.1838693 C50.8398136,54.0419817 50.8398844,48.8629195 47.6634193,45.6864544 C45.6263861,43.6494212 42.8296373,42.9243539 40.2056348,43.4768164 L31.0215198,34.2927014 C29.2606824,32.5318641 26.4985112,32.5317934 24.7376739,34.2926307 C22.9767659,36.0535387 22.9768366,38.81571 24.7376739,40.5765473 L33.9217889,49.7606623 C33.4038332,52.350158 34.163478,55.1813429 36.1660044,57.1838693 C39.3424695,60.3603344 44.4869542,60.3948412 47.6979261,57.1838693 Z" id="Shape"></path>
                </g>
                <g id="Bold-S" transform="translate(1800.440000, 3.000000)">
                    <path d="M41.5586,90.46875 C63.873,90.46875 82.2324,72.1094 82.2324,49.7461 C82.2324,41.3477 79.5957,33.4375 75.1523,26.8945 L78.082,23.9648 C79.3027,22.793 79.8887,21.4746 79.8887,20.0586 C79.8887,17.2266 77.6914,14.9805 74.8105,14.9805 C73.1504,14.9805 71.9785,15.4688 70.7578,16.5918 L68.1699,19.082 C62.2617,13.9551 54.8887,10.4883 46.832,9.4141 L46.832,5.6055 C46.832,2.627 44.4395,0.332 41.5586,0.332 C38.7266,0.332 36.2363,2.627 36.2363,5.6055 L36.2363,9.4141 C16.3633,12.002 0.83594,29.2383 0.83594,49.7461 C0.83594,72.1094 19.1953,90.46875 41.5586,90.46875 Z M41.5586,79.67773 C24.957,79.67773 11.6758,66.3477 11.6758,49.7461 C11.6758,33.1934 24.957,19.8633 41.5098,19.8633 C58.1113,19.8633 71.4414,33.1934 71.4414,49.7461 C71.4414,66.3477 58.1113,79.67773 41.5586,79.67773 Z M47.1351706,55.5967138 C50.1044534,52.627431 50.1044534,47.7936491 47.1351706,44.8243663 C45.167151,42.8563467 42.4049798,42.2348705 39.8845684,42.8219106 L29.4920079,32.4293501 C27.9382822,30.8756244 25.5214619,30.8755536 23.9332294,32.4637862 C22.3795036,34.0175119 22.3449968,36.4689097 23.8987226,38.0226354 L34.2912831,48.4151959 C33.7387498,50.9011005 34.3948035,53.6977078 36.3283163,55.6312206 C39.2975991,58.6005034 44.1313103,58.6005741 47.1351706,55.5967138 Z" id="Shape"></path>
                </g>
                <g id="Semibold-S" transform="translate(1504.200000, 4.000000)">
                    <path d="M41.0703,88.98047 C63.0918,88.98047 81.3047,70.8164 81.3047,48.7461 C81.3047,40.1523 78.5215,32.1445 73.8828,25.6016 L76.6172,22.8184 C77.7402,21.6953 78.375,20.377 78.375,19.1074 C78.375,16.373 76.2266,14.2734 73.4922,14.2734 C71.9297,14.2734 70.7578,14.7129 69.6348,15.7871 L67.1445,18.2285 C61.2852,13.248 54.0098,9.8789 46.0996,8.8535 L46.0996,5.3379 C46.0996,2.457 43.8535,0.2109 41.0703,0.2109 C38.3359,0.2109 35.9922,2.457 35.9922,5.3379 L35.9922,8.8535 C16.3145,11.3438 0.83594,28.4336 0.83594,48.7461 C0.83594,70.8164 19.0488,88.98047 41.0703,88.98047 Z M41.0703,79.41016 C24.0781,79.41016 10.4551,65.7871 10.4551,48.7461 C10.4551,31.7539 24.0293,18.1309 41.0215,18.1309 C58.0625,18.1309 71.6855,31.7539 71.7344,48.7461 C71.7344,65.7871 58.0625,79.41016 41.0703,79.41016 Z M45.757573,54.229273 C48.5887579,51.3980882 48.5887579,46.7714885 45.757573,43.9403037 C43.8240602,42.0067909 41.0964665,41.4198922 38.6451395,42.0758752 L27.4239205,30.8546563 C26.0083635,29.4390992 23.7986548,29.4390992 22.3485202,30.8892338 C20.9328924,32.3048616 20.9328924,34.5145703 22.3484495,35.9301273 L33.5696684,47.1513463 C32.9481922,49.6371802 33.5696684,52.3303378 35.4686037,54.229273 C38.2997885,57.0604579 42.8918814,57.0949647 45.757573,54.229273 Z" id="Shape"></path>
                </g>
                <g id="Medium-S" transform="translate(1207.830000, 4.000000)">
                    <path d="M40.7285,88.63867 C62.5547,88.63867 80.6211,70.5723 80.6211,48.7461 C80.6211,40.0547 77.7402,31.9492 72.9062,25.3574 L75.543,22.7207 C76.5684,21.6465 77.1543,20.3281 77.1543,19.1074 C77.1543,16.5195 75.1523,14.4688 72.5156,14.4688 C70.9531,14.4688 69.8789,14.9082 68.7559,15.9336 L66.3145,18.3262 C60.5527,13.4434 53.375,10.1719 45.5625,9.1953 L45.5625,5.875 C45.5625,3.1406 43.3652,0.9434 40.6797,0.9434 C38.0918,0.9434 35.8457,3.1406 35.8457,5.875 L35.8457,9.1465 C16.2656,11.5879 0.83594,28.5801 0.83594,48.7461 C0.83594,70.5723 18.9023,88.63867 40.7285,88.63867 Z M40.7285,79.99609 C23.3945,79.99609 9.5273,66.0801 9.5273,48.7461 C9.5273,31.4121 23.3457,17.5449 40.6797,17.5449 C58.0137,17.5449 71.8809,31.4121 71.929828,48.7461 C71.9785,66.0801 58.0625,79.99609 40.7285,79.99609 Z M45.4776754,53.8904186 C48.2052691,51.1628249 48.1707623,46.7089007 45.4776754,44.0158138 C43.5787401,42.1168785 40.9202308,41.5299092 38.5378466,42.2549765 L26.6606447,30.3777746 C25.3486081,29.065738 23.277068,29.065738 21.9305246,30.4122814 C20.618488,31.724318 20.618488,33.7958581 21.9305246,35.1078947 L33.8077265,46.9850966 C33.117166,49.4019876 33.7041354,52.0604969 35.5685638,53.9249254 C38.2616507,56.6180123 42.7155749,56.6525191 45.4776754,53.8904186 Z" id="Shape"></path>
                </g>
                <g id="Regular-S" transform="translate(911.580000, 5.000000)">
                    <path d="M40.2402,87.15039 C61.7734,87.15039 79.6934,69.2793 79.6934,47.7461 C79.6934,38.9082 76.666,30.7051 71.5879,24.0645 L74.0781,21.5742 C75.0547,20.5977 75.6406,19.2793 75.6406,18.1074 C75.6406,15.666 73.6875,13.7129 71.1973,13.7129 C69.7324,13.7129 68.707,14.1523 67.6816,15.1289 L65.2891,17.4727 C59.5762,12.7363 52.4961,9.5137 44.8301,8.5859 L44.8301,5.6074 C44.8301,2.9707 42.7793,0.8223 40.1914,0.8223 C37.7012,0.8223 35.6016,2.9707 35.6016,5.6074 L35.6016,8.5859 C16.2168,10.9297 0.83594,27.7754 0.83594,47.7461 C0.83594,69.2793 18.7559,87.15039 40.2402,87.15039 Z M40.2402,79.72852 C22.5156,79.72852 8.3555,65.5195 8.3555,47.7461 C8.3555,29.9727 22.4668,15.7637 40.1914,15.7637 C57.9648,15.7637 72.1738,29.9727 72.2228249,47.7461 C72.2715,65.5195 58.0137,79.72852 40.2402,79.72852 Z M45.1001278,52.5229985 C47.724201,49.8989252 47.6551874,45.6866901 45.1001985,43.1317012 C43.23577,41.2672727 40.6116968,40.7148809 38.2984676,41.5089618 L25.6271848,28.837679 C24.4187394,27.6292335 22.5542402,27.6292335 21.3457947,28.837679 C20.171856,30.0116177 20.1719267,31.8760462 21.3803722,33.0844917 L34.051655,45.7557745 C33.3265877,48.0690036 33.8789796,50.6930768 35.7089012,52.5229985 C38.2638901,55.0779874 42.4761252,55.147001 45.1001278,52.5229985 Z" id="Shape"></path>
                </g>
                <g id="Light-S" transform="translate(615.600000, 6.000000)">
                    <path d="M39.5078,85.41797 C60.6992,85.41797 78.2285,67.9375 78.2285,46.7461 C78.2285,37.7617 75.0547,29.4609 69.8301,22.8203 L73.1992,19.4023 C74.0293,18.6211 74.4688,17.5469 74.4688,16.6191 C74.4688,14.7148 72.9062,13.1523 70.9043,13.1523 C69.7324,13.1523 68.9023,13.4941 68.0723,14.2754 L64.752,17.5957 C58.8438,12.4199 51.3242,9.0508 43.1699,8.2207 L43.1699,3.9238 C43.1699,1.8242 41.5586,0.1152 39.5078,0.1152 C37.457,0.1152 35.7969,1.8242 35.7969,3.9238 L35.7969,8.2207 C16.3145,10.125 0.83594,26.8242 0.83594,46.7461 C0.83594,67.9375 18.3652,85.41797 39.5078,85.41797 Z M39.5078,79.70508 C21.2461,79.70508 6.5977,65.0078 6.5977,46.7461 C6.5977,28.4844 21.1973,13.7871 39.5078,13.7871 C57.7695,13.7871 72.4668,28.4844 72.5156,46.7461 C72.5156,65.0078 57.8184,79.70508 39.5078,79.70508 Z M43.2468686,50.6941186 C45.5256616,48.4153256 45.4911548,44.7901305 43.2468686,42.5458443 C41.6241292,40.9231049 39.3454069,40.5087404 37.170205,41.2338077 L23.117872,27.1814746 C22.1856224,26.249225 20.700981,26.2837318 19.7687314,27.2159814 C18.8365525,28.1481603 18.8365525,29.5982949 19.7688021,30.5305445 L33.7866284,44.5483707 C33.0615611,46.7925862 33.5103618,49.105886 35.0985943,50.6941186 C37.3428805,52.9384048 40.9681463,52.9728409 43.2468686,50.6941186 Z" id="Shape"></path>
                </g>
                <g id="Thin-S" transform="translate(319.867000, 6.000000)">
                    <path d="M38.5801,84.49023 C59.2832,84.49023 76.2754,67.4492 76.2754,46.7461 C76.2754,37.5664 72.9551,29.1191 67.4375,22.5762 L72.0762,17.8887 C72.6133,17.3516 72.9062,16.668 72.9062,15.9844 C72.9062,14.7148 71.8809,13.6895 70.5137,13.6895 C69.7812,13.6895 69.1953,13.8848 68.6582,14.4707 L64.0195,19.0117 C57.8672,13.3477 49.8105,9.6855 40.9727,9.0996 L40.9727,3.0449 C40.9727,1.6289 39.9473,0.5059 38.5312,0.5059 C37.1641,0.5059 36.0898,1.6289 36.0898,3.0449 L36.0898,9.0996 C16.5098,10.3691 0.83594,26.873 0.83594,46.7461 C0.83594,67.4492 17.877,84.49023 38.5801,84.49023 Z M38.5801,81.072266 C19.5859,81.072266 4.2539,65.6914 4.2539,46.7461 C4.2539,27.8008 19.5859,12.4199 38.5312,12.4199 C57.5254,12.4199 72.8574,27.8008 72.8574,46.7461 C72.8574,65.6914 57.5254,81.072266 38.5801,81.072266 Z M42.1739094,49.6110319 C43.9692535,47.8156878 43.9692535,44.9844322 42.1048251,43.1200037 C40.8273659,41.8425446 39.0319511,41.4972644 36.9604111,42.2568385 L21.1126632,26.4090906 C20.4911871,25.7876145 19.5589375,25.8221213 18.9373906,26.4436681 C18.3849988,26.9960599 18.350492,27.9283095 18.9719681,28.5497857 L34.7851385,44.362956 C34.0256351,46.3655532 34.3363378,48.2645591 35.6483037,49.5765251 C37.4782254,51.4064467 40.3439878,51.4409535 42.1739094,49.6110319 Z" id="Shape"></path>
                </g>
                <g id="Ultralight-S" transform="translate(23.644000, 6.000000)">
                    <path d="M38.043,83.95312 C58.502,83.95312 75.2988,67.2051 75.2988,46.7461 C75.2988,37.4688 71.832,28.9727 66.168,22.4297 L71.4902,17.1074 C71.8809,16.668 72.125,16.1797 72.125,15.6914 C72.125,14.7637 71.3438,13.9824 70.3184,13.9824 C69.7812,13.9824 69.3418,14.1289 68.9512,14.5684 L63.6777,19.793 C57.3789,13.8359 49.0293,10.0273 39.8496,9.5879 L39.8496,2.5566 C39.8496,1.5312 39.1172,0.7012 38.043,0.7012 C37.0176,0.7012 36.2363,1.5312 36.2363,2.5566 L36.2363,9.5879 C16.6074,10.5156 0.83594,26.873 0.83594,46.7461 C0.83594,67.2051 17.584,83.95312 38.043,83.95312 Z M38.043,81.755859 C18.7559,81.755859 3.08203,66.0332 3.08203,46.7461 C3.08203,27.459 18.7559,11.7363 38.043,11.7363 C57.3789,11.7363 73.0527,27.459 73.0527,46.7461 C73.0527,66.0332 57.3789,81.755859 38.043,81.755859 Z M40.5576536,49.0781329 C42.1458861,47.4899003 42.1112379,45.0385026 40.4884986,43.4157632 C39.3836442,42.3109089 37.8299892,42.0002061 35.8619696,42.7942871 L19.0474653,25.9797828 C18.6331715,25.5654889 17.9771178,25.5999957 17.5283171,26.0487964 C17.1485301,26.4285835 17.1140232,27.0846371 17.5283171,27.498931 L34.2737371,44.2443509 C33.514163,46.1778637 33.7558521,47.8696874 34.8952132,49.0090486 C36.4834457,50.5972811 39.0039279,50.6318586 40.5576536,49.0781329 Z" id="Shape"></path>
                </g>
            </g>
        </g>
    </g>
</svg>